<svg width="156" height="290" viewBox="0 0 156 290" fill="none" xmlns="http://www.w3.org/2000/svg">
<mask id="path-1-outside-1_45_631" maskUnits="userSpaceOnUse" x="-0.199219" y="0" width="156" height="290" fill="black">
<rect fill="white" x="-0.199219" width="156" height="290"/>
<path d="M102.601 4.99998H150.601V285H90.6008V68.2L5.00078 109.8V53L102.601 4.99998Z"/>
</mask>
<path d="M102.601 4.99998V-1.52588e-05H101.438L100.394 0.513229L102.601 4.99998ZM150.601 4.99998H155.601V-1.52588e-05H150.601V4.99998ZM150.601 285V290H155.601V285H150.601ZM90.6008 285H85.6008V290H90.6008V285ZM90.6008 68.2H95.6008V60.2109L88.4153 63.7029L90.6008 68.2ZM5.00078 109.8H0.000782013V117.789L7.18627 114.297L5.00078 109.8ZM5.00078 53L2.79418 48.5132L0.000782013 49.887V53H5.00078ZM102.601 4.99998V9.99998H150.601V4.99998V-1.52588e-05H102.601V4.99998ZM150.601 4.99998H145.601V285H150.601H155.601V4.99998H150.601ZM150.601 285V280H90.6008V285V290H150.601V285ZM90.6008 285H95.6008V68.2H90.6008H85.6008V285H90.6008ZM90.6008 68.2L88.4153 63.7029L2.81529 105.303L5.00078 109.8L7.18627 114.297L92.7863 72.6971L90.6008 68.2ZM5.00078 109.8H10.0008V53H5.00078H0.000782013V109.8H5.00078ZM5.00078 53L7.20738 57.4867L104.807 9.48673L102.601 4.99998L100.394 0.513229L2.79418 48.5132L5.00078 53Z" fill="#024379" fill-opacity="0.06" mask="url(#path-1-outside-1_45_631)"/>
</svg>
