<svg width="286" height="295" viewBox="0 0 286 295" fill="none" xmlns="http://www.w3.org/2000/svg">
<mask id="path-1-outside-1_45_640" maskUnits="userSpaceOnUse" x="0" y="-0.200195" width="286" height="295" fill="black">
<rect fill="white" y="-0.200195" width="286" height="295"/>
<path d="M99.4 240.6H280.2V289.8H5V244.6L163.4 144.2C179.667 134.6 191.533 126.066 199 118.6C206.733 110.866 210.6 101.666 210.6 90.9998C210.6 78.4665 205 69.2665 193.8 63.3998C182.6 57.2665 167.667 54.1998 149 54.1998C103.133 54.1998 77.5333 72.1998 72.2 108.2L14.2 104.6C17.6667 70.9998 31.4 46.0665 55.4 29.7998C79.6667 13.2665 110.733 4.9998 148.6 4.9998C184.6 4.9998 213.933 12.0665 236.6 26.1998C259.267 40.0665 270.6 60.4665 270.6 87.3998C270.6 103.933 265.133 119 254.2 132.6C243.267 145.933 224.6 160.6 198.2 176.6L99.4 240.6Z"/>
</mask>
<path d="M99.4 240.6L96.6816 236.403L82.4846 245.6H99.4V240.6ZM280.2 240.6H285.2V235.6H280.2V240.6ZM280.2 289.8V294.8H285.2V289.8H280.2ZM5 289.8H2.38419e-07V294.8H5V289.8ZM5 244.6L2.32322 240.377L2.38419e-07 241.849V244.6H5ZM163.4 144.2L160.859 139.894L160.79 139.934L160.723 139.977L163.4 144.2ZM199 118.6L195.464 115.064L199 118.6ZM193.8 63.3998L191.398 67.7853L191.439 67.8075L191.48 67.8289L193.8 63.3998ZM72.2 108.2L71.8903 113.19L76.4731 113.475L77.146 108.933L72.2 108.2ZM14.2 104.6L9.2264 104.087L8.69187 109.268L13.8903 109.59L14.2 104.6ZM55.4 29.7998L58.2053 33.9387L58.2153 33.9319L55.4 29.7998ZM236.6 26.1998L233.955 30.4426L233.973 30.4538L233.991 30.465L236.6 26.1998ZM254.2 132.6L258.066 135.77L258.082 135.751L258.097 135.733L254.2 132.6ZM198.2 176.6L195.609 172.324L195.544 172.363L195.482 172.403L198.2 176.6ZM99.4 240.6V245.6H280.2V240.6V235.6H99.4V240.6ZM280.2 240.6H275.2V289.8H280.2H285.2V240.6H280.2ZM280.2 289.8V284.8H5V289.8V294.8H280.2V289.8ZM5 289.8H10V244.6H5H2.38419e-07V289.8H5ZM5 244.6L7.67678 248.823L166.077 148.423L163.4 144.2L160.723 139.977L2.32322 240.377L5 244.6ZM163.4 144.2L165.941 148.506C182.334 138.832 194.625 130.046 202.536 122.135L199 118.6L195.464 115.064C188.442 122.087 177 130.368 160.859 139.894L163.4 144.2ZM199 118.6L202.536 122.135C211.18 113.491 215.6 103.03 215.6 90.9998H210.6H205.6C205.6 100.303 202.287 108.242 195.464 115.064L199 118.6ZM210.6 90.9998H215.6C215.6 83.9685 214.021 77.6041 210.671 72.1001C207.322 66.5984 202.383 62.2512 196.12 58.9706L193.8 63.3998L191.48 67.8289C196.417 70.4151 199.878 73.6011 202.129 77.2995C204.379 80.9955 205.6 85.4978 205.6 90.9998H210.6ZM193.8 63.3998L196.202 59.0143C184.003 52.3342 168.145 49.1998 149 49.1998V54.1998V59.1998C167.188 59.1998 181.197 62.1987 191.398 67.7853L193.8 63.3998ZM149 54.1998V49.1998C125.494 49.1998 106.475 53.8003 92.5241 63.6096C78.4186 73.5276 70.0858 88.3521 67.254 107.467L72.2 108.2L77.146 108.933C79.6475 92.0474 86.7814 79.872 98.2759 71.7899C109.925 63.5993 126.64 59.1998 149 59.1998V54.1998ZM72.2 108.2L72.5098 103.209L14.5097 99.6094L14.2 104.6L13.8903 109.59L71.8903 113.19L72.2 108.2ZM14.2 104.6L19.1736 105.113C22.5165 72.7128 35.6362 49.2355 58.2053 33.9387L55.4 29.7998L52.5947 25.6609C27.1638 42.8974 12.8169 69.2868 9.2264 104.087L14.2 104.6ZM55.4 29.7998L58.2153 33.9319C81.4416 18.1074 111.449 9.9998 148.6 9.9998V4.9998V-0.000198364C110.018 -0.000198364 77.8918 8.42553 52.5847 25.6677L55.4 29.7998ZM148.6 4.9998V9.9998C183.98 9.9998 212.312 16.948 233.955 30.4426L236.6 26.1998L239.246 21.957C215.554 7.18491 185.22 -0.000198364 148.6 -0.000198364V4.9998ZM236.6 26.1998L233.991 30.465C255.148 43.408 265.6 62.1784 265.6 87.3998H270.6H275.6C275.6 58.7545 263.386 36.7249 239.209 21.9346L236.6 26.1998ZM270.6 87.3998H265.6C265.6 102.727 260.565 116.702 250.303 129.467L254.2 132.6L258.097 135.733C269.702 121.298 275.6 105.139 275.6 87.3998H270.6ZM254.2 132.6L250.334 129.429C239.938 142.107 221.844 156.424 195.609 172.324L198.2 176.6L200.792 180.876C227.356 164.776 246.595 149.759 258.066 135.77L254.2 132.6ZM198.2 176.6L195.482 172.403L96.6816 236.403L99.4 240.6L102.118 244.796L200.918 180.796L198.2 176.6Z" fill="#024379" fill-opacity="0.06" mask="url(#path-1-outside-1_45_640)"/>
</svg>
