<svg width="294" height="295" viewBox="0 0 294 295" fill="none" xmlns="http://www.w3.org/2000/svg">
<mask id="path-1-outside-1_46_802" maskUnits="userSpaceOnUse" x="-0.0878906" y="0" width="294" height="295" fill="black">
<rect fill="white" x="-0.0878906" width="294" height="295"/>
<path d="M170.912 112.2C249.579 115.667 288.912 143.8 288.912 196.6C288.912 217.933 282.379 235.8 269.312 250.2C256.245 264.333 239.179 274.467 218.112 280.6C197.312 286.733 173.045 289.8 145.312 289.8C106.112 289.8 73.9788 282.467 48.9121 267.8C24.1121 253.133 9.71211 231.533 5.71211 203L63.7121 200.2C70.3788 227.133 97.5788 240.6 145.312 240.6C170.379 240.6 190.512 236.867 205.712 229.4C221.179 221.667 228.912 210.733 228.912 196.6C228.912 183.8 221.979 173.533 208.112 165.8C194.245 157.8 173.845 153.8 146.912 153.8C129.312 153.8 110.245 155.533 89.7121 159V119L192.912 54.2H24.5121V4.99998H278.112V49L170.912 112.2Z"/>
</mask>
<path d="M170.912 112.2L168.373 107.893L153.853 116.453L170.692 117.195L170.912 112.2ZM269.312 250.2L272.983 253.594L272.999 253.577L273.015 253.56L269.312 250.2ZM218.112 280.6L216.714 275.799L216.706 275.802L216.698 275.804L218.112 280.6ZM48.9121 267.8L46.3669 272.104L46.377 272.11L46.3871 272.116L48.9121 267.8ZM5.71211 203L5.47101 198.006L0.000124216 198.27L0.760529 203.694L5.71211 203ZM63.7121 200.2L68.5656 198.999L67.5778 195.008L63.471 195.206L63.7121 200.2ZM205.712 229.4L207.917 233.888L207.932 233.88L207.948 233.872L205.712 229.4ZM208.112 165.8L205.613 170.131L205.645 170.149L205.677 170.167L208.112 165.8ZM89.7121 159H84.7121V164.915L90.5445 163.93L89.7121 159ZM89.7121 119L87.0533 114.766L84.7121 116.236V119H89.7121ZM192.912 54.2L195.571 58.4344L210.278 49.2H192.912V54.2ZM24.5121 54.2H19.5121V59.2H24.5121V54.2ZM24.5121 4.99998V-1.52588e-05H19.5121V4.99998H24.5121ZM278.112 4.99998H283.112V-1.52588e-05H278.112V4.99998ZM278.112 49L280.651 53.3072L283.112 51.8565V49H278.112ZM170.912 112.2L170.692 117.195C209.608 118.91 237.976 126.715 256.503 139.967C274.723 152.998 283.912 171.641 283.912 196.6H288.912H293.912C293.912 168.759 283.435 146.935 262.321 131.833C241.514 116.951 210.883 108.957 171.132 107.205L170.912 112.2ZM288.912 196.6H283.912C283.912 216.822 277.757 233.452 265.609 246.84L269.312 250.2L273.015 253.56C287 238.148 293.912 219.045 293.912 196.6H288.912ZM269.312 250.2L265.641 246.806C253.273 260.183 237.034 269.883 216.714 275.799L218.112 280.6L219.51 285.401C241.324 279.05 259.218 268.483 272.983 253.594L269.312 250.2ZM218.112 280.6L216.698 275.804C196.464 281.77 172.693 284.8 145.312 284.8V289.8V294.8C173.398 294.8 198.16 291.696 219.526 285.396L218.112 280.6ZM145.312 289.8V284.8C106.7 284.8 75.5154 277.573 51.4372 263.484L48.9121 267.8L46.3871 272.116C72.4422 287.361 105.524 294.8 145.312 294.8V289.8ZM48.9121 267.8L51.4573 263.496C27.9668 249.604 14.4525 229.333 10.6637 202.306L5.71211 203L0.760529 203.694C4.97174 233.734 20.2574 256.663 46.3669 272.104L48.9121 267.8ZM5.71211 203L5.95321 207.994L63.9532 205.194L63.7121 200.2L63.471 195.206L5.47101 198.006L5.71211 203ZM63.7121 200.2L58.8586 201.401C62.5811 216.44 72.1157 227.664 86.8936 234.981C101.467 242.196 121.072 245.6 145.312 245.6V240.6V235.6C121.819 235.6 103.957 232.271 91.3306 226.019C78.9085 219.869 71.5098 210.893 68.5656 198.999L63.7121 200.2ZM145.312 240.6V245.6C170.806 245.6 191.781 241.814 207.917 233.888L205.712 229.4L203.508 224.912C189.243 231.919 169.952 235.6 145.312 235.6V240.6ZM205.712 229.4L207.948 233.872C224.652 225.52 233.912 213.089 233.912 196.6H228.912H223.912C223.912 208.378 217.705 217.813 203.476 224.928L205.712 229.4ZM228.912 196.6H233.912C233.912 181.527 225.55 169.8 210.547 161.433L208.112 165.8L205.677 170.167C218.408 177.267 223.912 186.073 223.912 196.6H228.912ZM208.112 165.8L210.611 161.469C195.63 152.826 174.194 148.8 146.912 148.8V153.8V158.8C173.497 158.8 192.861 162.774 205.613 170.131L208.112 165.8ZM146.912 153.8V148.8C128.988 148.8 109.64 150.565 88.8797 154.07L89.7121 159L90.5445 163.93C110.851 160.502 129.636 158.8 146.912 158.8V153.8ZM89.7121 159H94.7121V119H89.7121H84.7121V159H89.7121ZM89.7121 119L92.371 123.234L195.571 58.4344L192.912 54.2L190.253 49.9655L87.0533 114.766L89.7121 119ZM192.912 54.2V49.2H24.5121V54.2V59.2H192.912V54.2ZM24.5121 54.2H29.5121V4.99998H24.5121H19.5121V54.2H24.5121ZM24.5121 4.99998V9.99998H278.112V4.99998V-1.52588e-05H24.5121V4.99998ZM278.112 4.99998H273.112V49H278.112H283.112V4.99998H278.112ZM278.112 49L275.573 44.6928L168.373 107.893L170.912 112.2L173.451 116.507L280.651 53.3072L278.112 49Z" fill="#024379" fill-opacity="0.06" mask="url(#path-1-outside-1_46_802)"/>
</svg>
