<svg width="322" height="290" viewBox="0 0 322 290" fill="none" xmlns="http://www.w3.org/2000/svg">
<mask id="path-1-outside-1_46_810" maskUnits="userSpaceOnUse" x="-0.599609" y="0" width="323" height="290" fill="black">
<rect fill="white" x="-0.599609" width="323" height="290"/>
<path d="M257.4 175.8H316.6V225H257.4V285H197.4V225H5.00039V179.8L160.2 4.99998H257.4V175.8ZM70.6004 175.8H197.4V33.8L70.6004 175.8Z"/>
</mask>
<path d="M257.4 175.8H252.4V180.8H257.4V175.8ZM316.6 175.8H321.6V170.8H316.6V175.8ZM316.6 225V230H321.6V225H316.6ZM257.4 225V220H252.4V225H257.4ZM257.4 285V290H262.4V285H257.4ZM197.4 285H192.4V290H197.4V285ZM197.4 225H202.4V220H197.4V225ZM5.00039 225H0.00039053V230H5.00039V225ZM5.00039 179.8L1.26146 176.48L0.00039053 177.901V179.8H5.00039ZM160.2 4.99998V-1.52588e-05H157.953L156.461 1.68029L160.2 4.99998ZM257.4 4.99998H262.4V-1.52588e-05H257.4V4.99998ZM70.6004 175.8L66.8709 172.47L59.4323 180.8H70.6004V175.8ZM197.4 175.8V180.8H202.4V175.8H197.4ZM197.4 33.8H202.4V20.6938L193.671 30.4697L197.4 33.8ZM257.4 175.8V180.8H316.6V175.8V170.8H257.4V175.8ZM316.6 175.8H311.6V225H316.6H321.6V175.8H316.6ZM316.6 225V220H257.4V225V230H316.6V225ZM257.4 225H252.4V285H257.4H262.4V225H257.4ZM257.4 285V280H197.4V285V290H257.4V285ZM197.4 285H202.4V225H197.4H192.4V285H197.4ZM197.4 225V220H5.00039V225V230H197.4V225ZM5.00039 225H10.0004V179.8H5.00039H0.00039053V225H5.00039ZM5.00039 179.8L8.73932 183.12L163.939 8.31967L160.2 4.99998L156.461 1.68029L1.26146 176.48L5.00039 179.8ZM160.2 4.99998V9.99998H257.4V4.99998V-1.52588e-05H160.2V4.99998ZM257.4 4.99998H252.4V175.8H257.4H262.4V4.99998H257.4ZM70.6004 175.8V180.8H197.4V175.8V170.8H70.6004V175.8ZM197.4 175.8H202.4V33.8H197.4H192.4V175.8H197.4ZM197.4 33.8L193.671 30.4697L66.8709 172.47L70.6004 175.8L74.3299 179.13L201.13 37.1303L197.4 33.8Z" fill="#024379" fill-opacity="0.06" mask="url(#path-1-outside-1_46_810)"/>
</svg>
