<svg width="28" height="28" viewBox="0 0 28 28" fill="none" xmlns="http://www.w3.org/2000/svg">
<mask id="mask0_45_713" style="mask-type:luminance" maskUnits="userSpaceOnUse" x="0" y="0" width="28" height="28">
<path d="M27.5693 0.430664V27.5693H0.430664V0.430664H27.5693Z" fill="white" stroke="white" stroke-width="0.862069"/>
</mask>
<g mask="url(#mask0_45_713)">
<path d="M9.62415 14.7513L19.4963 23.4061C19.6101 23.5064 19.7479 23.5755 19.8963 23.6065C20.0448 23.6375 20.1987 23.6294 20.3431 23.5829C20.4874 23.5365 20.6173 23.4534 20.7199 23.3417C20.8224 23.2299 20.8942 23.0934 20.928 22.9456L25.3741 3.63333C25.3785 3.61391 25.3775 3.59378 25.3712 3.57488C25.365 3.55607 25.3537 3.53927 25.3386 3.52641C25.3236 3.51346 25.3053 3.50488 25.2857 3.50156C25.2662 3.49823 25.246 3.50024 25.2276 3.50751L3.06165 12.1821C2.92401 12.235 2.80729 12.3312 2.72906 12.4561C2.65075 12.5811 2.61505 12.728 2.62739 12.8749C2.63973 13.0218 2.6994 13.1609 2.7974 13.2709C2.8954 13.3811 3.02648 13.4565 3.17103 13.4858L9.62415 14.7513Z" stroke="#EFEFEF" stroke-linecap="round" stroke-linejoin="round"/>
<path d="M9.625 14.7513L25.3104 3.50977" stroke="#EFEFEF" stroke-linecap="round" stroke-linejoin="round"/>
<path d="M14.4779 19.0067L11.13 22.4805C11.009 22.606 10.8533 22.6926 10.6828 22.729C10.5123 22.7654 10.3349 22.7501 10.1732 22.685C10.0115 22.6199 9.87289 22.5079 9.77524 22.3636C9.67759 22.2192 9.62526 22.0489 9.625 21.8745V14.751" stroke="#EFEFEF" stroke-linecap="round" stroke-linejoin="round"/>
</g>
</svg>
