<svg width="28" height="28" viewBox="0 0 28 28" fill="none" xmlns="http://www.w3.org/2000/svg">
<mask id="mask0_45_705" style="mask-type:luminance" maskUnits="userSpaceOnUse" x="0" y="0" width="28" height="28">
<path d="M27.5762 0.423828V27.5762H0.423828V0.423828H27.5762Z" fill="white" stroke="white" stroke-width="0.847458"/>
</mask>
<g mask="url(#mask0_45_705)">
<path d="M7.875 11.374C7.875 10.4458 8.24373 9.5556 8.90006 8.89917C9.55649 8.24284 10.4467 7.87402 11.375 7.87402L13.125 11.374L11.7775 13.3942C12.312 14.6715 13.3276 15.6871 14.6048 16.2215L16.625 14.874L20.125 16.624C20.125 17.5523 19.7562 18.4425 19.0998 19.099C18.4434 19.7553 17.5532 20.124 16.625 20.124C14.3043 20.124 12.0788 19.2022 10.4378 17.5612C8.79681 15.9203 7.875 13.6947 7.875 11.374Z" stroke="#EFEFEF" stroke-linecap="round" stroke-linejoin="round"/>
<path d="M8.74138 23.0897C10.9469 24.3662 13.5414 24.797 16.0412 24.3018C18.541 23.8067 20.7754 22.4193 22.3278 20.3984C23.8802 18.3774 24.6447 15.8609 24.4787 13.318C24.3126 10.775 23.2275 8.37929 21.4256 6.57732C19.6237 4.77534 17.2278 3.69025 14.6849 3.52427C12.142 3.35828 9.62548 4.12268 7.60458 5.6751C5.58368 7.22753 4.19628 9.46193 3.70111 11.9616C3.20595 14.4614 3.63671 17.056 4.91325 19.2616L3.54492 23.3467C3.49356 23.5009 3.48604 23.6663 3.5234 23.8245C3.56076 23.9826 3.64135 24.1274 3.75633 24.2423C3.87121 24.3571 4.01585 24.4378 4.17405 24.4751C4.33225 24.5125 4.49763 24.505 4.6518 24.4536L8.74138 23.0897Z" stroke="#EFEFEF" stroke-linecap="round" stroke-linejoin="round"/>
</g>
</svg>
